<svg width="430" height="112" viewBox="0 0 430 112" fill="none" xmlns="http://www.w3.org/2000/svg"><g clip-path="url(#clip0_2120_4393)"><path d="M0.242188 2.32031H86.1495V23.7922H21.7141V88.2276H0.242188V2.32031Z" fill="#009639"/><path d="M107.618 109.681H21.7109V88.2087H86.1463V23.793H107.618V109.681Z" fill="#C8102E"/><path d="M204.068 69.6265L189.792 22.2782L175.517 69.6265H204.087H204.068ZM208.099 2.32031L245.085 109.7H216.731L210.163 89.722H169.363L162.835 109.7H134.461L171.447 2.32031H208.099Z" fill="black"/><path d="M352.445 2.32031H429.76V28.0787H405.378V109.68H376.808V28.0787H352.445V2.32031Z" fill="black"/><path d="M295.752 0C310.125 0 329.316 4.62079 341.173 19.8202C342.353 21.3343 343.788 23.4579 344.811 25.2275L319.839 36.6713L319.19 35.6489C314.196 28.2556 304.463 24.559 295.772 24.559C287.081 24.559 279.432 28.2556 274.457 35.6489C271.016 40.7809 268.637 48.0758 268.637 57.1011C268.637 66.1264 271.016 73.4213 274.457 78.5534C279.432 85.9466 287.081 89.7022 295.772 89.7022C305.583 89.7022 315.218 86.8118 320.193 79.4185C321.884 76.9017 323.319 73.3427 324.224 69.6264H295.772V47.4073H351.614C351.929 50.1404 352.086 53.0702 352.086 56C352.086 70.9242 347.701 84.1966 341.075 92.7107C329.238 107.91 310.165 112 295.791 112C281.418 112 263.524 106.809 251.668 91.6096C245.022 83.0955 239.477 70.9242 239.477 56C239.477 41.0758 245.041 28.9045 251.668 20.3904C263.505 5.19101 281.398 0 295.791 0" fill="black"/></g><defs><clipPath id="clip0_2120_4393"><rect width="429.517" height="112" fill="white" transform="translate(0.242188)"/></clipPath></defs></svg>