<svg xmlns="http://www.w3.org/2000/svg" viewBox="0 0 64 64" width="100%" height="100%" fill="none">
  <!-- Background decorative elements -->
  <circle cx="32" cy="32" r="26" fill="#fcf7f4" />
  <circle cx="32" cy="32" r="20" fill="#f0ddd0" opacity="0.5" />
  
  <!-- Document paper sheet -->
  <path d="M18 12h20l8 8v30a2 2 0 0 1-2 2H20a2 2 0 0 1-2-2V14a2 2 0 0 1 2-2z" fill="#ffffff" stroke="#d9a98a" stroke-width="2" stroke-linejoin="round" />
  <!-- Folded corner of document -->
  <path d="M38 12v8h8" stroke="#d9a98a" stroke-width="2" stroke-linejoin="round" />
  
  <!-- Content lines representing text -->
  <path d="M24 24h10M24 30h18M24 36h14" stroke="#f0ddd0" stroke-width="2" stroke-linecap="round" />
  
  <!-- Signature line -->
  <path d="M24 44h12" stroke="#c97a56" stroke-width="2" stroke-linecap="round" />
  <!-- Signature stroke path -->
  <path d="M25 42c2-3 4-3 5-1s2 3 4 1 3-5 4-4" stroke="#c97a56" stroke-width="1.5" stroke-linecap="round" stroke-linejoin="round" />
  
  <!-- Pen signing the contract -->
  <path d="M42 34l8-8" stroke="#c97a56" stroke-width="2" stroke-linecap="round" />
  <!-- Pen tip/body -->
  <path d="M40 36l-2 4 4-2 10-10a2.828 2.828 0 1 0-4-4l-10 10-2 2z" fill="#ffffff" stroke="#c97a56" stroke-width="2" stroke-linejoin="round" />
</svg>
